PathFileType	3	(X/Y/Z)	D:\Vicon Setup\UG\Test1\New Session\NewSession16.trc
DataRate	CameraRate	NumFrames	NumMarkers	Units	OrigDataRate	OrigDataStartFrame	OrigNumFrames
100.0	100.0	13	27	mm	100.0	371	357	
Frame#	Time	Sternum			LShoulder			RShoulder			LASIS			RASIS			RPSIS			LPSIS			RKneeLateral			RKneeMedial			RFibulaHead			RMidShank			RAnkleLateral			RAnkleMedial			RHeel			RMT5			RMT2			RToe			LKneeLateral			LKneeMedial			LFibulaHead			LMidShank			LAnkleLateral			LAnkleMedial			LHeel			LMT5			LMT2			LToe			
		X1	Y1	Z1	X2	Y2	Z2	X3	Y3	Z3	X4	Y4	Z4	X5	Y5	Z5	X6	Y6	Z6	X7	Y7	Z7	X8	Y8	Z8	X9	Y9	Z9	X10	Y10	Z10	X11	Y11	Z11	X12	Y12	Z12	X13	Y13	Z13	X14	Y14	Z14	X15	Y15	Z15	X16	Y16	Z16	X17	Y17	Z17	X18	Y18	Z18	X19	Y19	Z19	X20	Y20	Z20	X21	Y21	Z21	X22	Y22	Z22	X23	Y23	Z23	X24	Y24	Z24	X25	Y25	Z25	X26	Y26	Z26	X27	Y27	Z27	
371	3.7	-180.71262	1404.8839	-3255.8774	-4.4483986	1482.0637	-3356.8894	-372.81964	1443.4366	-3322.5508	-60.601616	1022.0596	-3321.9673	-315.23605	1023.6797	-3325.5061	-236.87947	1072.0024	-3491.332	-108.82933	1072.3524	-3489.2217	-337.91995	572.22809	-3510.9058	-211.29572	538.50732	-3479.7585	-340.16064	501.40817	-3551.6301	-257.32245	345.22403	-3610.5591	-233.78807	198.59111	-3708.0044	-304.16864	217.1498	-3772.1165	-233.76688	267.76892	-3809.6426	-328.74213	52.16663	-3770.0312	-273.67139	66.06926	-3728.3923	-276.46432	30.015455	-3719.3286	-10.990815	590.05957	-3199.4407	-133.50293	580.49939	-3182.8845	-4.0448136	527.9527	-3209.1526	-87.712639	373.66922	-3197.9656	-42.096603	166.80714	-3282.627	-120.50573	191.71452	-3242.7915	-101.86965	165.88254	-3358.7141	-26.696993	57.847103	-3174.1472	-85.592812	97.102715	-3149.5571	-97.481613	84.530098	-3116.2668
372	3.71	-178.04266	1410.9829	-3229.3989	-1.7286378	1484.2064	-3329.7837	-369.81308	1447.0919	-3296.4634	-59.389801	1024.7573	-3293.4536	-313.21771	1027.3993	-3298.1726	-234.43422	1076.2186	-3462.7253	-106.39253	1076.0354	-3460.1248	-336.69797	574.57855	-3483.1304	-210.45776	540.73969	-3452.9102	-339.37274	504.80951	-3524.8662	-257.06894	350.64987	-3588.4597	-234.60196	206.01471	-3689.2097	-303.78629	227.62419	-3753.2419	-232.20602	278.81616	-3787.769	-330.23492	61.808846	-3759.9487	-276.00168	73.91394	-3715.615	-279.89481	30.915302	-3708.2744	-10.253319	588.34094	-3177.0557	-132.94881	578.06195	-3159.1951	-2.7745988	525.60895	-3184.5503	-84.985817	370.76089	-3165.5923	-38.193321	159.32657	-3239.0398	-116.77436	186.60559	-3200.7683	-97.500969	154.84007	-3314.8684	-24.612595	55.981071	-3124.7974	-83.330566	97.607964	-3102.707	-95.203011	87.388824	-3068.8269
373	3.72	-175.56485	1416.3135	-3202.7791	0.75016314	1485.0311	-3302.3618	-367.15381	1449.8048	-3270.5632	-58.05661	1026.2853	-3263.7593	-311.13974	1030.2478	-3270.9966	-231.83659	1079.036	-3434.5762	-103.75886	1078.4462	-3431.2373	-335.32315	575.35425	-3454.0254	-209.3775	541.64429	-3424.2983	-338.48877	506.46066	-3496.3914	-255.88498	355.16043	-3565.7661	-234.72466	213.21178	-3670.8838	-302.81067	237.74168	-3735.2949	-229.60344	288.22534	-3767.8347	-331.8374	72.087334	-3745.8037	-278.21091	82.497887	-3700.6055	-284.19644	38.961155	-3694.4124	-9.2609234	585.54242	-3155.134	-132.44905	574.74341	-3136.7522	-1.6568137	522.03363	-3160.6931	-82.863632	367.23392	-3134.3381	-35.057678	152.89943	-3197.4375	-113.71754	182.0883	-3161.218	-93.554199	144.59322	-3273.3652	-22.441683	55.584793	-3078.1255	-81.133049	98.400787	-3058.7654	-92.998016	90.474998	-3024.3677
374	3.73	-173.01482	1420.573	-3176.1851	3.6888227	1484.738	-3274.6165	-364.45654	1451.5671	-3244.7249	-56.803265	1026.8898	-3235.0078	-309.15799	1031.8026	-3243.8135	-229.10226	1080.4249	-3406.8572	-101.04624	1079.4773	-3402.7346	-333.69598	574.63629	-3423.3599	-208.03455	541.28088	-3394.6938	-337.66946	506.92944	-3466.7825	-254.40538	358.95053	-3542.5591	-233.94278	221.328	-3652.2358	-301.29257	248.16156	-3716.6931	-226.93936	296.94385	-3748.79	-334.61575	83.367065	-3727.5281	-280.26254	91.838692	-3682.7532	-286.35876	48.76366	-3677.2532	-8.4008904	581.75201	-3132.7253	-131.99399	570.6084	-3115.5747	-0.73322785	517.97583	-3137.4514	-81.024368	363.99414	-3104.2903	-32.322453	147.32986	-3158.4729	-111.30686	177.77933	-3124.4778	-90.126305	134.72443	-3234.4648	-20.114697	56.508282	-3034.3813	-79.186584	99.80481	-3017.7854	-91.336746	93.644188	-2983.1453
375	3.74	-170.22285	1423.4967	-3149.7639	7.0263562	1483.4246	-3246.7302	-361.61081	1451.8529	-3219.0518	-55.409248	1026.4893	-3206.5034	-307.19666	1032.1708	-3216.6335	-226.36424	1080.2933	-3379.4768	-98.334366	1079.0006	-3374.5981	-331.97183	572.48572	-3391.1619	-206.95557	539.4563	-3363.4922	-336.65207	506.13724	-3435.9856	-252.92819	362.3208	-3517.9963	-232.94936	229.35538	-3632.575	-299.95523	257.90906	-3696.6311	-224.7243	305.23962	-3729.1067	-336.84204	93.884819	-3707.5256	-282.39273	101.39589	-3662.7537	-289.23849	58.017628	-3657.6035	-7.5253739	577.3858	-3109.8782	-130.92125	565.45752	-3095.3062	-0.010420021	513.4278	-3113.989	-80.154709	360.56671	-3075.6091	-30.559214	142.27385	-3122.885	-109.89602	173.45529	-3090.6594	-87.475609	125.0432	-3198.3057	-17.683201	58.292091	-2994.1218	-77.55394	101.46407	-2980.178	-89.880165	96.599495	-2945.2249
376	3.75	-167.35332	1424.8151	-3123.9243	9.7903614	1480.8577	-3218.8291	-358.99289	1451.1771	-3193.2549	-53.994442	1024.6997	-3177.7573	-305.49188	1031.2086	-3189.6079	-223.58578	1078.8087	-3352.2346	-95.628197	1077.0026	-3346.7693	-330.19095	569.27594	-3357.9377	-205.5674	536.43488	-3331.3616	-335.52744	504.51416	-3404.0818	-251.43927	364.53711	-3491.9561	-231.84004	236.82365	-3611.6919	-298.8454	267.21011	-3675.2419	-222.98979	313.3522	-3707.9324	-338.6691	103.89123	-3685.9851	-284.03723	110.73141	-3641.4111	-291.37964	66.839653	-3636.4707	-6.9673548	572.45483	-3086.3188	-130.39047	559.52039	-3073.9595	0.52352214	508.59464	-3089.9814	-79.646614	356.35056	-3048.8196	-29.106815	137.38974	-3090.3669	-108.92204	168.72141	-3059.6465	-85.803329	115.64958	-3165.032	-14.876544	60.003708	-2957.8042	-75.876999	102.14787	-2945.9739	-88.238258	98.818611	-2910.833
377	3.76	-164.44548	1424.0708	-3098.6445	12.942049	1477.4371	-3191.019	-356.09213	1449.2786	-3168.0906	-52.326904	1022.2231	-3149.4375	-303.75534	1028.9325	-3162.5281	-220.87798	1075.9603	-3325.1475	-92.990448	1073.5621	-3319.1672	-328.33551	565.13159	-3323.4385	-204.05505	532.45764	-3298.1226	-334.33777	502.06863	-3371.1116	-250.36461	365.69196	-3464.1489	-230.64774	243.70515	-3588.8259	-297.68576	275.61438	-3651.6404	-221.64044	321.29141	-3684.9202	-339.45782	113.0684	-3662.7693	-284.76431	119.09217	-3618.8499	-292.73245	75.511765	-3614.0981	-6.237721	567.14429	-3062.3171	-130.14456	552.96173	-3051.511	0.93580782	503.29602	-3065.6079	-79.427879	351.41336	-3023.2947	-28.142832	131.88554	-3061.0515	-108.07921	163.46461	-3030.9062	-85.21521	107.31895	-3134.6213	-12.425942	59.418285	-2926.3279	-74.183273	100.53214	-2915.3984	-86.220932	98.185112	-2880.1804
378	3.77	-161.74942	1421.2029	-3073.7046	16.218142	1473.0254	-3163.3423	-352.94357	1446.4824	-3143.3596	-50.268238	1018.6521	-3121.583	-301.89325	1025.6096	-3135.5168	-218.22011	1071.7992	-3298.0913	-90.388443	1068.8964	-3291.8271	-326.52304	560.09534	-3288.2424	-202.32578	527.7489	-3264.551	-332.92447	498.20383	-3336.4539	-249.24196	365.91043	-3434.9392	-228.99248	249.76381	-3564.3467	-296.24069	283.07199	-3625.4346	-220.52176	328.78104	-3659.7666	-340.20889	121.63774	-3637.9006	-284.91235	127.04043	-3594.7856	-293.23236	83.125854	-3590.1316	-5.4105401	561.33826	-3038.0908	-130.36266	546.09625	-3028.0972	1.1362141	497.28912	-3041.5439	-79.361923	345.74875	-2998.7109	-27.577345	125.68941	-3034.2312	-107.22032	157.52827	-3003.6006	-85.544472	100.79781	-3107.0725	-10.896544	53.502483	-2899.6631	-72.003571	95.074608	-2888.1147	-83.574059	93.185265	-2853.0066
379	3.78	-159.51546	1416.4443	-3048.7261	19.132864	1467.418	-3135.6096	-350.88416	1442.2728	-3118.592	-48.026905	1014.1363	-3093.8765	-299.85345	1021.317	-3108.9155	-215.63498	1066.3528	-3271.084	-87.83683	1063.038	-3264.5452	-324.83362	554.01733	-3252.6919	-200.47346	522.18414	-3230.3247	-331.45972	493.1813	-3300.8013	-248.24556	365.24661	-3404.6072	-227.17809	254.90417	-3538.0945	-295.04822	289.71918	-3597.4905	-219.56631	335.67972	-3632.5994	-340.54102	129.30023	-3612.0579	-284.48199	133.28809	-3569.0681	-293.6152	89.112022	-3564.9197	-4.9519272	554.66211	-3013.875	-130.97778	539.1604	-3004.1941	1.306728	490.6842	-3018.0208	-78.548294	338.94983	-2974.9062	-26.676857	118.55494	-3010.0862	-105.84377	150.69331	-2977.9204	-86.387085	95.516411	-3082.2024	-9.7269697	43.584831	-2876.9426	-69.985489	86.054642	-2863.6616	-80.812561	84.254288	-2828.7478
380	3.79	-158.10521	1410.3044	-3022.759	22.19976	1460.7898	-3107.8159	-348.18134	1437.1654	-3094.6414	-45.650887	1008.641	-3066.1279	-297.71909	1016.0945	-3081.9858	-213.09813	1059.6702	-3244.1208	-85.395317	1056.172	-3237.3108	-323.31232	546.97687	-3216.6934	-199.0412	515.96899	-3195.3345	-330.49915	487.32864	-3264.6162	-246.60081	363.81033	-3372.897	-225.32672	258.90677	-3509.8943	-293.73389	295.09894	-3567.6748	-218.49188	341.41623	-3603.5806	-340.50632	135.451	-3583.4097	-283.91467	138.63525	-3541.2656	-293.31271	94.746658	-3537.2166	-4.6076083	547.19226	-2989.7671	-131.71609	531.98376	-2980.1592	1.323179	483.00946	-2995.0879	-77.397484	331.16055	-2952.2197	-25.739418	110.52074	-2987.926	-104.65009	142.85278	-2954.1255	-87.13147	91.049667	-3060.2671	-8.5859585	32.099678	-2857.2925	-69.298615	74.269043	-2841.9805	-79.608093	71.911858	-2806.9858
381	3.8	-157.14534	1402.9629	-2996.3315	25.512907	1453.2697	-3079.9187	-345.651	1431.1091	-3070.9612	-43.030758	1002.1768	-3038.0957	-295.57214	1009.9525	-3055.2329	-210.56313	1051.7928	-3217.2817	-82.912285	1048.4044	-3210.1682	-321.98184	538.99689	-3180.2273	-197.87013	508.98016	-3159.5222	-329.4064	480.30042	-3227.7161	-244.1165	361.89227	-3339.9578	-223.51891	261.70129	-3479.9421	-292.28354	299.11252	-3536.3987	-217.25015	345.48724	-3572.8684	-340.19589	140.6198	-3553.5415	-283.18832	142.74054	-3511.4648	-292.59543	98.533821	-3507.4055	-3.8986795	538.55743	-2966.7288	-131.88397	524.5213	-2956.4717	1.8644546	474.23419	-2973.5071	-76.113609	322.57104	-2930.6653	-25.552883	105.16467	-2970.8735	-105.18202	135.36317	-2933.4758	-96.099487	94.302551	-3047.4333	-6.7715969	33.112335	-2850.0837	-70.835526	62.079655	-2828.7524	-82.372482	54.284443	-2790.5559
382	3.81	-156.2486	1394.4127	-2969.2202	28.697659	1444.7312	-3051.8296	-343.33612	1424.1132	-3047.498	-40.381756	994.72375	-3010.991	-293.26166	1002.665	-3028.2893	-208.06889	1043.0073	-3190.8687	-80.155098	1040.0341	-3183.5605	-320.92154	530.26172	-3142.8962	-196.8849	501.11163	-3122.7905	-328.23514	472.35181	-3189.9644	-243.30104	358.21664	-3305.7126	-221.91237	263.28278	-3448.106	-290.73547	301.79782	-3503.7642	-215.81383	348.00644	-3540.762	-339.84448	143.79774	-3521.1602	-282.56134	145.52454	-3479.3438	-292.40411	101.96979	-3475.7488	-3.7081959	528.86517	-2946.0103	-131.09344	515.30841	-2933.677	2.377857	463.86273	-2953.4062	-77.24839	312.20828	-2913.9124	-32.184418	103.86493	-2969.5857	-111.06388	130.45374	-2928.4788	-97.002838	84.846718	-3051.3738	-8.1504755	33.865143	-2849.2488	-74.289246	59.830212	-2827.5115	-83.379684	47.827858	-2788.1133
383	3.82	-155.46227	1384.799	-2941.8083	31.629204	1435.4064	-3022.9199	-340.95059	1416.3849	-3023.6897	-38.270153	986.92853	-2984.8113	-291.07855	994.7605	-3001.7837	-205.5804	1033.4823	-3165.2385	-77.132477	1031.3209	-3157.6155	-319.93051	521.01825	-3104.3926	-195.3974	491.841	-3084.6536	-326.78357	464.38947	-3151.6479	-241.81544	353.80759	-3270.0256	-220.81705	263.87527	-3414.5376	-289.22568	303.07123	-3469.7144	-214.16437	348.94498	-3506.8672	-339.25385	145.57869	-3486.6797	-282.22101	147.28584	-3444.75	-292.11349	103.87927	-3440.9585	-3.6955841	520.13184	-2922.7549	-130.16635	504.99976	-2912.4932	1.0689764	454.94058	-2929.7922	-83.772888	303.13141	-2906.2178	-38.728653	99.87973	-2981.0791	-122.48826	125.8503	-2946.1799	-103.7849	74.222389	-3055.0046	-11.356462	36.295341	-2851.0098	-77.154312	59.082592	-2831.4871	-86.400787	48.422253	-2791.5527
